<?xml version="1.0" encoding="UTF-8" standalone="no"?>
<svg
   width="107.816"
   height="51.206451"
   viewBox="0 0 107.81601 51.206449"
   version="1.1"
   id="svg5"
   xmlns="http://www.w3.org/2000/svg"
   xmlns:svg="http://www.w3.org/2000/svg">
  <defs
     id="defs2" />
  <g
     id="layer1"
     transform="translate(-27.9362,-54.733208)">
    <g
       id="g880"
       transform="translate(6.4998228,2.9998963)">
      <g
         id="g1629"
         transform="translate(5.5003797,2.6123686)">
        <path
           fill="none"
           stroke="currentColor"
           stroke-linecap="round"
           stroke-linejoin="round"
           d="m 88.134018,54.070768 v 41.306581 l -15.38937,-4.34108 M 116.21412,54.527785 H 98.436284 v 22.222302 l 14.747896,-1.918531 -1.21244,16.464363 -15.261311,4.08026"
           id="path315"
           style="stroke-width:4.075;stroke-dasharray:none" />
        <path
           fill="currentColor"
           d="m 36.170532,66.709901 -9.596821,8.013114 9.596821,8.013107 a 1.8673618,1.8673618 0 0 1 0.260013,2.647401 1.9146368,1.9146368 0 0 1 -1.465525,0.685484 1.8200868,1.8200868 0 0 1 -1.205513,-0.449111 L 22.413512,76.164898 a 1.8673618,1.8673618 0 0 1 0,-2.883774 L 33.759507,63.82613 a 1.8909992,1.8909992 0 1 1 2.411025,2.883771 z M 77.772517,73.281124 66.426522,63.82613 a 1.8909992,1.8909992 0 0 0 -2.411024,2.883771 l 9.596821,8.013114 -9.596821,8.013107 a 1.8909992,1.8909992 0 0 0 1.205511,3.332885 1.8200868,1.8200868 0 0 0 1.205513,-0.449111 l 11.345995,-9.454998 a 1.8673618,1.8673618 0 0 0 0,-2.883774 z M 58.295225,52.149209 a 1.8673618,1.8673618 0 0 0 -2.411025,1.1346 L 40.756205,94.885794 a 1.8673618,1.8673618 0 0 0 1.1346,2.411021 2.0328242,2.0328242 0 0 0 0.638212,0.118187 1.8673618,1.8673618 0 0 0 1.772811,-1.252787 L 59.429824,54.560233 a 1.8673618,1.8673618 0 0 0 -1.134599,-2.411024 z"
           id="path1618"
           style="stroke:#000000;stroke-width:0.6;stroke-dasharray:none;stroke-opacity:1" />
      </g>
    </g>
  </g>
</svg>
